<svg xmlns="http://www.w3.org/2000/svg" viewBox="0 0 24 24" fill="none">
  <path d="M12 2C8.13 2 5 5.13 5 9c0 5.25 7 13 7 13s7-7.75 7-13c0-3.87-3.13-7-7-7z" fill="#fff7ed" stroke="#f97316" stroke-width="2"/>
  <circle cx="12" cy="9" r="4.5" fill="#f97316"/>
  <path d="M14 10h-4v-2h4v2z M10 12h4 M11 14h2" stroke="white" stroke-width="1.5" stroke-linecap="round"/>
  <path d="M19 17h2c.6 0 1-.4 1-1v-3c0-.9-.7-1.7-1.5-1.9C18.7 10.6 16 10 16 10s-1.3-1.4-2.2-2.3c-.5-.4-1.1-.7-1.8-.7H12c-.7 0-1.3.3-1.8.7-.9.9-2.2 2.3-2.2 2.3s-2.7.6-4.5 1.1C2.7 11 2 11.9 2 12.8v3c0 .6.4 1 1 1h2" stroke="white" stroke-width="1.5" fill="none" transform="translate(0, -5) scale(0.7) translate(4, 5)"/>
</svg>
