<svg xmlns="http://www.w3.org/2000/svg" viewBox="0 0 24 24" fill="none">
  <path d="M12 2C8.13 2 5 5.13 5 9c0 5.25 7 13 7 13s7-7.75 7-13c0-3.87-3.13-7-7-7z" fill="#fff7ed" stroke="#ea580c" stroke-width="2"/>
  <circle cx="12" cy="9" r="4.5" fill="#ea580c"/>
  <path d="M8.5 14.5A2.5 2.5 0 0 0 11 12c0-1.38-.5-2-1-3-1.072-2.143-.224-4.054 2-6 .5 2.5 2 4.9 4 6.5 2 1.6 3 3.5 3 5.5a7 7 0 1 1-14 0c0-1.1.2-2.2.5-3.3.3-1.09.9-2.2 1.9-3.19z" stroke="white" stroke-width="1.5" fill="none" transform="translate(0, -4) scale(0.6) translate(6, 6)"/>
</svg>
